<svg width="1080" height="1080" viewBox="0 0 1080 1080" fill="none" xmlns="http://www.w3.org/2000/svg">
  <defs>
    <linearGradient id="bg" x1="120" y1="80" x2="980" y2="1040" gradientUnits="userSpaceOnUse">
      <stop offset="0" stop-color="#120C0D"/>
      <stop offset="0.45" stop-color="#231416"/>
      <stop offset="1" stop-color="#070708"/>
    </linearGradient>
    <radialGradient id="glow" cx="0" cy="0" r="1" gradientUnits="userSpaceOnUse" gradientTransform="translate(540 530) rotate(90) scale(420 420)">
      <stop offset="0" stop-color="#7B1116" stop-opacity="0.72"/>
      <stop offset="1" stop-color="#7B1116" stop-opacity="0"/>
    </radialGradient>
    <linearGradient id="gold" x1="160" y1="160" x2="930" y2="930" gradientUnits="userSpaceOnUse">
      <stop offset="0" stop-color="#FFE4A3"/>
      <stop offset="0.4" stop-color="#F0BE51"/>
      <stop offset="1" stop-color="#A76B11"/>
    </linearGradient>
    <linearGradient id="steel" x1="200" y1="180" x2="900" y2="880" gradientUnits="userSpaceOnUse">
      <stop offset="0" stop-color="#50555E"/>
      <stop offset="0.45" stop-color="#9399A4"/>
      <stop offset="1" stop-color="#3B3F47"/>
    </linearGradient>
    <pattern id="stripes" width="28" height="28" patternUnits="userSpaceOnUse" patternTransform="rotate(35)">
      <rect width="28" height="28" fill="transparent"/>
      <rect width="10" height="28" fill="white" fill-opacity="0.025"/>
    </pattern>
    <filter id="softGlow" x="-40%" y="-40%" width="180%" height="180%">
      <feGaussianBlur stdDeviation="10" result="blur"/>
      <feMerge>
        <feMergeNode in="blur"/>
        <feMergeNode in="SourceGraphic"/>
      </feMerge>
    </filter>
    <filter id="shadow" x="-30%" y="-30%" width="160%" height="160%">
      <feDropShadow dx="0" dy="18" stdDeviation="18" flood-color="#000000" flood-opacity="0.55"/>
    </filter>
  </defs>

  <rect width="1080" height="1080" rx="64" fill="url(#bg)"/>
  <rect width="1080" height="1080" rx="64" fill="url(#stripes)"/>
  <circle cx="540" cy="540" r="425" fill="url(#glow)"/>
  <rect x="38" y="38" width="1004" height="1004" rx="40" stroke="url(#gold)" stroke-width="8"/>
  <rect x="58" y="58" width="964" height="964" rx="28" stroke="white" stroke-opacity="0.06" stroke-width="2"/>

  <g filter="url(#softGlow)">
    <path d="M226 560H854" stroke="#C3272D" stroke-width="18" stroke-linecap="round" stroke-opacity="0.85"/>
    <path d="M300 560H780" stroke="url(#steel)" stroke-width="30" stroke-linecap="round"/>
    <rect x="232" y="502" width="34" height="116" rx="8" fill="#9AA0AA"/>
    <rect x="190" y="488" width="34" height="144" rx="8" fill="#696F79"/>
    <rect x="146" y="470" width="34" height="180" rx="8" fill="#515661"/>
    <rect x="814" y="502" width="34" height="116" rx="8" fill="#9AA0AA"/>
    <rect x="856" y="488" width="34" height="144" rx="8" fill="#696F79"/>
    <rect x="900" y="470" width="34" height="180" rx="8" fill="#515661"/>
  </g>

  <g opacity="0.2">
    <path d="M540 228L700 318V502L540 594L380 502V318L540 228Z" fill="white"/>
    <path d="M540 252L678 330V490L540 568L402 490V330L540 252Z" stroke="url(#gold)" stroke-width="5"/>
  </g>

  <g filter="url(#shadow)">
    <path d="M230 864C272 744 302 694 346 650C372 624 392 582 402 534L426 398C433 357 460 326 498 316C523 310 549 313 568 329C594 350 600 381 596 414L578 544C570 614 544 667 498 714L432 782L398 864H230Z" fill="#08090B"/>
    <path d="M304 876C310 812 326 758 350 724C382 678 404 642 416 602L442 462C446 441 458 424 477 414C504 399 539 409 554 435L576 472L586 620L536 744L478 818L456 876H304Z" fill="url(#gold)" fill-opacity="0.08"/>
    <circle cx="470" cy="232" r="66" fill="#08090B"/>
    <path d="M410 314C438 286 483 280 520 300C554 319 573 358 570 396L566 454L534 444L526 388C523 365 509 344 489 333C470 322 446 323 427 335L410 314Z" fill="#08090B"/>
    <path d="M518 376L664 470L642 514L496 424L518 376Z" fill="#08090B"/>
    <rect x="640" y="486" width="30" height="116" rx="10" transform="rotate(20 640 486)" fill="#08090B"/>
    <rect x="676" y="500" width="30" height="116" rx="10" transform="rotate(20 676 500)" fill="#08090B"/>
    <rect x="712" y="518" width="30" height="116" rx="10" transform="rotate(20 712 518)" fill="#08090B"/>
    <path d="M408 390L302 500L264 462L370 352L408 390Z" fill="#08090B"/>
    <rect x="236" y="468" width="28" height="104" rx="10" transform="rotate(-44 236 468)" fill="#08090B"/>
    <rect x="204" y="498" width="28" height="104" rx="10" transform="rotate(-44 204 498)" fill="#08090B"/>
  </g>

  <g filter="url(#shadow)">
    <path d="M850 864C808 744 778 694 734 650C708 624 688 582 678 534L654 398C647 357 620 326 582 316C557 310 531 313 512 329C486 350 480 381 484 414L502 544C510 614 536 667 582 714L648 782L682 864H850Z" fill="#08090B"/>
    <path d="M776 876C770 812 754 758 730 724C698 678 676 642 664 602L638 462C634 441 622 424 603 414C576 399 541 409 526 435L504 472L494 620L544 744L602 818L624 876H776Z" fill="url(#gold)" fill-opacity="0.08"/>
    <circle cx="610" cy="232" r="66" fill="#08090B"/>
    <path d="M670 314C642 286 597 280 560 300C526 319 507 358 510 396L514 454L546 444L554 388C557 365 571 344 591 333C610 322 634 323 653 335L670 314Z" fill="#08090B"/>
    <path d="M562 376L416 470L438 514L584 424L562 376Z" fill="#08090B"/>
    <rect width="30" height="116" rx="10" transform="matrix(-0.939693 0.34202 0.34202 0.939693 440 486)" fill="#08090B"/>
    <rect width="30" height="116" rx="10" transform="matrix(-0.939693 0.34202 0.34202 0.939693 404 500)" fill="#08090B"/>
    <rect width="30" height="116" rx="10" transform="matrix(-0.939693 0.34202 0.34202 0.939693 368 518)" fill="#08090B"/>
    <path d="M672 390L778 500L816 462L710 352L672 390Z" fill="#08090B"/>
    <rect width="28" height="104" rx="10" transform="matrix(-0.71934 -0.694658 -0.694658 0.71934 844 468)" fill="#08090B"/>
    <rect width="28" height="104" rx="10" transform="matrix(-0.71934 -0.694658 -0.694658 0.71934 876 498)" fill="#08090B"/>
  </g>

  <g filter="url(#shadow)">
    <text x="540" y="148" text-anchor="middle" fill="url(#gold)" font-size="70" font-weight="900" font-family="Impact, Arial Black, sans-serif" letter-spacing="4">
      &#1052;&#1059;&#1046;&#1057;&#1050;&#1054;&#1049; &#1063;&#1040;&#1058;
    </text>
    <text x="540" y="226" text-anchor="middle" fill="#F7F0DF" font-size="118" font-weight="900" font-family="Impact, Arial Black, sans-serif" letter-spacing="5">
      &#1050;&#1040;&#1063;&#1040;&#1051;&#1050;&#1040;
    </text>
    <text x="540" y="308" text-anchor="middle" fill="#F7F0DF" font-size="78" font-weight="800" font-family="Arial Black, sans-serif" letter-spacing="8">
      &#1048; &#1057;&#1055;&#1054;&#1056;&#1058;
    </text>
  </g>

  <g filter="url(#shadow)">
    <rect x="208" y="646" width="664" height="190" rx="30" fill="#09090B" fill-opacity="0.84" stroke="url(#gold)" stroke-width="4"/>
    <text x="540" y="736" text-anchor="middle" fill="#FFFFFF" font-size="156" font-weight="900" font-family="Impact, Arial Black, sans-serif" letter-spacing="6">
      2X
    </text>
    <text x="540" y="807" text-anchor="middle" fill="#D99E2B" font-size="60" font-weight="900" font-family="Arial Black, sans-serif" letter-spacing="7">
      2 &#1056;&#1040;&#1047;&#1040; &#1042; &#1053;&#1045;&#1044;&#1045;&#1051;&#1070;
    </text>
  </g>

  <g opacity="0.92">
    <path d="M155 936H925" stroke="url(#gold)" stroke-width="6" stroke-linecap="round"/>
    <text x="540" y="988" text-anchor="middle" fill="#F7F0DF" font-size="38" font-weight="700" font-family="Arial, Helvetica, sans-serif" letter-spacing="4">
      &#1046;&#1045;&#1051;&#1045;&#1047;&#1054; &#8226; &#1044;&#1048;&#1057;&#1062;&#1048;&#1055;&#1051;&#1048;&#1053;&#1040; &#8226; &#1041;&#1056;&#1040;&#1058;&#1057;&#1058;&#1042;&#1054;
    </text>
  </g>
</svg>
